#define x7_width 84
#define x7_height 48
static unsigned char x7_bits[] = {
   0x00, 0x00, 0x00, 0x00, 0x00, 0x00, 0x00, 0x00, 0x00, 0x00, 0x00, 0x00,
   0x00, 0x00, 0x00, 0x00, 0x00, 0x00, 0x00, 0x00, 0x00, 0x00, 0x00, 0x00,
   0x00, 0x00, 0x00, 0x00, 0x00, 0x00, 0x00, 0x00, 0x00, 0x00, 0x00, 0x00,
   0x00, 0x00, 0x00, 0x00, 0x00, 0x00, 0x00, 0x00, 0x00, 0x00, 0xff, 0x03,
   0x00, 0x00, 0xf0, 0xff, 0x1f, 0x00, 0x00, 0x00, 0xf0, 0x00, 0x1e, 0x00,
   0x00, 0x1c, 0x00, 0x10, 0x00, 0x00, 0x00, 0x1c, 0x00, 0x10, 0x00, 0x00,
   0x02, 0x00, 0x20, 0x00, 0x00, 0x00, 0x07, 0x00, 0x30, 0x00, 0x00, 0x01,
   0x00, 0x20, 0x00, 0x00, 0x80, 0x01, 0x1c, 0x20, 0x00, 0x80, 0x00, 0x00,
   0x60, 0x00, 0x00, 0x80, 0x00, 0x7f, 0x40, 0x00, 0x80, 0x00, 0x00, 0xc0,
   0x00, 0x00, 0x80, 0x00, 0x7f, 0xc0, 0x00, 0xc0, 0x00, 0x00, 0x80, 0x01,
   0x00, 0x80, 0x80, 0xff, 0x80, 0x00, 0x40, 0x00, 0x00, 0x00, 0x01, 0x00,
   0x40, 0x80, 0xff, 0x80, 0x00, 0x40, 0x00, 0x00, 0x00, 0x01, 0x00, 0x40,
   0x80, 0xff, 0x80, 0x00, 0x40, 0x00, 0x00, 0x00, 0x01, 0x00, 0x40, 0x00,
   0x7f, 0x80, 0x00, 0x60, 0x00, 0x00, 0x00, 0x03, 0x00, 0x40, 0x00, 0x7f,
   0x80, 0x00, 0x20, 0x00, 0x00, 0x00, 0x02, 0x00, 0x40, 0x00, 0x1c, 0x80,
   0x00, 0x20, 0x00, 0x38, 0x00, 0x03, 0x00, 0x40, 0x00, 0x00, 0x80, 0x00,
   0x20, 0x00, 0xfe, 0x00, 0x01, 0x00, 0xc0, 0x00, 0x00, 0x80, 0x00, 0x20,
   0x00, 0xfe, 0x00, 0x01, 0x00, 0x80, 0x00, 0x00, 0xc0, 0x00, 0x40, 0x00,
   0xff, 0x01, 0x01, 0x00, 0x00, 0x01, 0x00, 0x40, 0x00, 0x40, 0x00, 0xff,
   0x81, 0x00, 0x00, 0x00, 0x03, 0x00, 0x40, 0x00, 0x80, 0x00, 0xff, 0x81,
   0x00, 0x00, 0x00, 0x02, 0x00, 0x40, 0x10, 0x80, 0x00, 0xfe, 0xc0, 0x00,
   0x00, 0x00, 0x04, 0x00, 0x20, 0x08, 0x00, 0x01, 0xfe, 0x60, 0x00, 0x00,
   0x00, 0x18, 0x00, 0x10, 0x0c, 0x00, 0x06, 0x38, 0x30, 0x00, 0x00, 0x00,
   0x70, 0x00, 0x18, 0x06, 0x00, 0x18, 0x00, 0x1c, 0x00, 0x00, 0x00, 0xc0,
   0xff, 0x07, 0x03, 0x00, 0xe0, 0xff, 0x03, 0x00, 0x00, 0x00, 0x00, 0x00,
   0x80, 0x00, 0x00, 0x00, 0x00, 0x00, 0x00, 0x00, 0x00, 0x00, 0x00, 0x40,
   0x00, 0x00, 0x00, 0x00, 0x00, 0x00, 0x00, 0x00, 0x00, 0x00, 0x40, 0x00,
   0x00, 0x00, 0x00, 0x00, 0x00, 0x00, 0x00, 0x00, 0x00, 0x20, 0x00, 0x00,
   0x00, 0x00, 0x00, 0x00, 0x00, 0x00, 0x00, 0x00, 0x10, 0x00, 0x00, 0x00,
   0x00, 0x00, 0x00, 0x00, 0x00, 0x00, 0x00, 0x1c, 0x00, 0x00, 0x00, 0x00,
   0x00, 0x00, 0x00, 0x00, 0x00, 0x00, 0x06, 0x00, 0x00, 0x00, 0x00, 0x00,
   0x00, 0x00, 0x00, 0x00, 0x80, 0x01, 0x00, 0x00, 0x00, 0x00, 0x00, 0x00,
   0x00, 0x00, 0x00, 0x60, 0x00, 0x00, 0x00, 0x00, 0x00, 0x00, 0x00, 0x00,
   0x00, 0x00, 0x30, 0x00, 0x00, 0x40, 0x00, 0x00, 0x00, 0x00, 0x00, 0x00,
   0x00, 0x10, 0x00, 0x00, 0x60, 0x00, 0x00, 0x00, 0x00, 0x00, 0x00, 0x00,
   0x10, 0x00, 0x00, 0x20, 0x00, 0x00, 0x00, 0x00, 0x00, 0x00, 0x00, 0x10,
   0x00, 0x00, 0x10, 0x00, 0x00, 0x00, 0x00, 0x00, 0x00, 0x00, 0x60, 0x00,
   0x00, 0x18, 0x00, 0x00, 0x00, 0x00, 0x00, 0x00, 0x00, 0x80, 0x01, 0x00,
   0x0c, 0x00, 0x00, 0x00, 0x00, 0x00, 0x00, 0x00, 0x00, 0x7e, 0x00, 0x03,
   0x00, 0x00, 0x00, 0x00, 0x00, 0x00, 0x00, 0x00, 0xc0, 0xff, 0x00, 0x00,
   0x00, 0x00, 0x00, 0x00, 0x00, 0x00, 0x00, 0x00, 0x00, 0x00, 0x00, 0x00,
   0x00, 0x00, 0x00, 0x00, 0x00, 0x00, 0x00, 0x00, 0x00, 0x00, 0x00, 0x00,
   0x00, 0x00, 0x00, 0x00, 0x00, 0x00, 0x00, 0x00, 0x00, 0x00, 0x00, 0x00,
   0x00, 0x00, 0x00, 0x00, 0x00, 0x00, 0x00, 0x00, 0x00, 0x00, 0x00, 0x00 };
