#define x9_width 84
#define x9_height 48
static unsigned char x9_bits[] = {
   0x00, 0x00, 0x00, 0x00, 0x00, 0x00, 0x00, 0x00, 0x00, 0x00, 0x00, 0x00,
   0x00, 0x00, 0x00, 0x00, 0x00, 0x00, 0x00, 0x00, 0x00, 0x00, 0x00, 0x00,
   0x00, 0x00, 0x00, 0x00, 0x00, 0x00, 0x00, 0x00, 0x00, 0x00, 0x00, 0x00,
   0x00, 0x00, 0x00, 0x00, 0x00, 0x00, 0x00, 0x00, 0x00, 0x00, 0xff, 0x03,
   0x00, 0x00, 0xf0, 0xff, 0x1f, 0x00, 0x00, 0x00, 0xf0, 0x00, 0x1e, 0x00,
   0x00, 0x1c, 0x00, 0x10, 0x00, 0x00, 0x00, 0x1c, 0x00, 0x10, 0x00, 0x00,
   0x02, 0x00, 0x20, 0x00, 0x00, 0x00, 0x07, 0x07, 0x30, 0x00, 0x00, 0x01,
   0x00, 0x20, 0x00, 0x00, 0x80, 0xc1, 0x1f, 0x20, 0x00, 0x80, 0x00, 0x00,
   0x60, 0x00, 0x00, 0x80, 0xc0, 0x1f, 0x40, 0x00, 0x80, 0x00, 0x00, 0xc0,
   0x00, 0x00, 0x80, 0xe0, 0x3f, 0xc0, 0x00, 0xc0, 0x00, 0x00, 0x80, 0x01,
   0x00, 0x80, 0xe0, 0x3f, 0x80, 0x00, 0x40, 0x00, 0x00, 0x00, 0x01, 0x00,
   0x40, 0xe0, 0x3f, 0x80, 0x00, 0x40, 0x00, 0x70, 0x00, 0x01, 0x00, 0x40,
   0xc0, 0x1f, 0x80, 0x00, 0x40, 0x00, 0xfc, 0x01, 0x01, 0x00, 0x40, 0xc0,
   0x1f, 0x80, 0x00, 0x60, 0x00, 0xfc, 0x01, 0x03, 0x00, 0x40, 0x00, 0x07,
   0x80, 0x00, 0x20, 0x00, 0xfe, 0x03, 0x02, 0x00, 0x40, 0x00, 0x00, 0x80,
   0x00, 0x20, 0x00, 0xfe, 0x03, 0x03, 0x00, 0x40, 0x00, 0x00, 0x80, 0x00,
   0x20, 0x00, 0xfe, 0x03, 0x01, 0x00, 0xc0, 0x00, 0x00, 0x80, 0x00, 0x20,
   0x00, 0xfc, 0x01, 0x01, 0x00, 0x80, 0x00, 0x00, 0xc0, 0x00, 0x40, 0x00,
   0xfc, 0x01, 0x01, 0x00, 0x00, 0x01, 0x00, 0x40, 0x00, 0x40, 0x00, 0x70,
   0x80, 0x00, 0x00, 0x00, 0x03, 0x00, 0x40, 0x00, 0x80, 0x00, 0x00, 0x80,
   0x00, 0x00, 0x00, 0x02, 0x00, 0x40, 0x10, 0x80, 0x00, 0x00, 0xc0, 0x00,
   0x00, 0x00, 0x04, 0x00, 0x20, 0x08, 0x00, 0x01, 0x00, 0x60, 0x00, 0x00,
   0x00, 0x18, 0x00, 0x10, 0x0c, 0x00, 0x06, 0x00, 0x30, 0x00, 0x00, 0x00,
   0x70, 0x00, 0x18, 0x06, 0x00, 0x18, 0x00, 0x1c, 0x00, 0x00, 0x00, 0xc0,
   0xff, 0x07, 0x03, 0x00, 0xe0, 0xff, 0x03, 0x00, 0x00, 0x00, 0x00, 0x00,
   0x80, 0x00, 0x00, 0x00, 0x00, 0x00, 0x00, 0x00, 0x00, 0x00, 0x00, 0x40,
   0x00, 0x00, 0x00, 0x00, 0x00, 0x00, 0x00, 0x00, 0x00, 0x00, 0x40, 0x00,
   0x00, 0x00, 0x00, 0x00, 0x00, 0x00, 0x00, 0x00, 0x00, 0x20, 0x00, 0x00,
   0x00, 0x00, 0x00, 0x00, 0x00, 0x00, 0x00, 0x00, 0x10, 0x00, 0x00, 0x00,
   0x00, 0x00, 0x00, 0x00, 0x00, 0x00, 0x00, 0x1c, 0x00, 0x00, 0x00, 0x00,
   0x00, 0x00, 0x00, 0x00, 0x00, 0x00, 0x06, 0x00, 0x00, 0x00, 0x00, 0x00,
   0x00, 0x00, 0x00, 0x00, 0x80, 0x01, 0x00, 0x00, 0x00, 0x00, 0x00, 0x00,
   0x00, 0x00, 0x00, 0x60, 0x00, 0x00, 0x00, 0x00, 0x00, 0x00, 0x00, 0x00,
   0x00, 0x00, 0x30, 0x00, 0x00, 0x40, 0x00, 0x00, 0x00, 0x00, 0x00, 0x00,
   0x00, 0x10, 0x00, 0x00, 0x60, 0x00, 0x00, 0x00, 0x00, 0x00, 0x00, 0x00,
   0x10, 0x00, 0x00, 0x20, 0x00, 0x00, 0x00, 0x00, 0x00, 0x00, 0x00, 0x10,
   0x00, 0x00, 0x10, 0x00, 0x00, 0x00, 0x00, 0x00, 0x00, 0x00, 0x60, 0x00,
   0x00, 0x18, 0x00, 0x00, 0x00, 0x00, 0x00, 0x00, 0x00, 0x80, 0x01, 0x00,
   0x0c, 0x00, 0x00, 0x00, 0x00, 0x00, 0x00, 0x00, 0x00, 0x7e, 0x00, 0x03,
   0x00, 0x00, 0x00, 0x00, 0x00, 0x00, 0x00, 0x00, 0xc0, 0xff, 0x00, 0x00,
   0x00, 0x00, 0x00, 0x00, 0x00, 0x00, 0x00, 0x00, 0x00, 0x00, 0x00, 0x00,
   0x00, 0x00, 0x00, 0x00, 0x00, 0x00, 0x00, 0x00, 0x00, 0x00, 0x00, 0x00,
   0x00, 0x00, 0x00, 0x00, 0x00, 0x00, 0x00, 0x00, 0x00, 0x00, 0x00, 0x00,
   0x00, 0x00, 0x00, 0x00, 0x00, 0x00, 0x00, 0x00, 0x00, 0x00, 0x00, 0x00 };
